<!DOCTYPE svg PUBLIC "-//W3C//DTD SVG 1.1//EN" "http://www.w3.org/Graphics/SVG/1.1/DTD/svg11.dtd">

<!-- Uploaded to: SVG Repo, www.svgrepo.com, Transformed by: SVG Repo Mixer Tools -->
<svg fill="#648D64" height="800px" width="800px" version="1.1" id="Capa_1" xmlns="http://www.w3.org/2000/svg" xmlns:xlink="http://www.w3.org/1999/xlink" viewBox="0 0 490.2 490.2" xml:space="preserve">

<g id="SVGRepo_bgCarrier" stroke-width="0"/>

<g id="SVGRepo_tracerCarrier" stroke-linecap="round" stroke-linejoin="round"/>

<g id="SVGRepo_iconCarrier"> <g> <path d="M485.446,324.9l-66.2-86.4h48.8c18.9,0.1,25.7-19.7,16.6-33.3L334.046,7.8c-7.3-10.4-24.9-10.4-32.2,0l-93.7,122.7 c-17.7-6.6-36.6-10.4-56-10.4c-84.2,0-151.7,67.6-151.7,149.7c0,75.2,57.5,137.2,131,147.2v31.6h-60.4c-11.4,0-20.8,9.4-20.8,20.8 s9.4,20.8,20.8,20.8h376.2c11.4,0,20.8-9.4,20.8-20.8s-9.4-20.8-20.8-20.8h-108V358h129.9l0,0l0,0 C486.246,358,495.846,338.4,485.446,324.9z M41.946,267.6c0-59.2,48.8-108.1,110.2-108.1c10.7,0,21,1.4,30.8,4.1l-31.8,41.7 c-10.1,13-0.9,33.6,16.6,33.3h48.8l-65.5,86.3c-9.3,13.5-3.1,31.7,16.6,33.3h45.1c-17.8,11.4-39.1,17.7-60.7,17.7 C91.846,375.7,41.946,326.8,41.946,267.6z M297.646,448.5h-124.7v-31.6c39-5.5,74.6-26.3,98.8-58.8h25.9V448.5z M208.246,317.5 l65.5-85.2c10.9-10.9,1.5-33.3-16.6-33.3h-48.8l110.1-143.4l108.1,142.4h-48.8c-18.3,0-26.2,20.3-16.6,33.3l65.5,86.3h-218.4V317.5 z"/> </g> </g>

</svg>